<?xml version="1.0" encoding="UTF-8" standalone="no"?>
<svg
   viewBox="0 0 512 512"
   version="1.1"
   id="svg4"
   sodipodi:docname="chart-column-solid.svg"
   inkscape:version="1.2.1 (9c6d41e410, 2022-07-14)"
   xmlns:inkscape="http://www.inkscape.org/namespaces/inkscape"
   xmlns:sodipodi="http://sodipodi.sourceforge.net/DTD/sodipodi-0.dtd"
   xmlns="http://www.w3.org/2000/svg"
   xmlns:svg="http://www.w3.org/2000/svg">
  <defs
     id="defs8" />
  <sodipodi:namedview
     id="namedview6"
     pagecolor="#ffffff"
     bordercolor="#000000"
     borderopacity="0.25"
     inkscape:showpageshadow="2"
     inkscape:pageopacity="0.0"
     inkscape:pagecheckerboard="0"
     inkscape:deskcolor="#d1d1d1"
     showgrid="false"
     inkscape:zoom="1.7128906"
     inkscape:cx="255.7081"
     inkscape:cy="256.2919"
     inkscape:window-width="1920"
     inkscape:window-height="1057"
     inkscape:window-x="-8"
     inkscape:window-y="-8"
     inkscape:window-maximized="1"
     inkscape:current-layer="svg4" />
  <!--! Font Awesome Pro 6.2.0 by @fontawesome - https://fontawesome.com License - https://fontawesome.com/license (Commercial License) Copyright 2022 Fonticons, Inc. -->
  <path
     d="m 32,32 c 17.7,0 32,14.3 32,32 v 336 c 0,8.8 7.2,16 16,16 h 400 c 17.7,0 32,14.3 32,32 0,17.7 -14.3,32 -32,32 H 80 C 35.8,480 0,444.2 0,400 V 64 C 0,46.3 14.3,32 32,32 Z m 128,192 c 17.7,0 32,14.3 32,32 v 64 c 0,17.7 -14.3,32 -32,32 -17.7,0 -32,-14.3 -32,-32 v -64 c 0,-17.7 14.3,-32 32,-32 z m 128,-64 v 160 c 0,17.7 -14.3,32 -32,32 -17.7,0 -32,-14.3 -32,-32 V 160 c 0,-17.7 14.3,-32 32,-32 17.7,0 32,14.3 32,32 z m 64,32 c 17.7,0 32,14.3 32,32 v 96 c 0,17.7 -14.3,32 -32,32 -17.7,0 -32,-14.3 -32,-32 v -96 c 0,-17.7 14.3,-32 32,-32 z M 480,96 v 224 c 0,17.7 -14.3,32 -32,32 -17.7,0 -32,-14.3 -32,-32 V 96 c 0,-17.7 14.3,-32 32,-32 17.7,0 32,14.3 32,32 z"
     id="path2"
     style="fill:#FFFFFF" />
</svg>
