<?xml version="1.0" encoding="UTF-8" standalone="no"?>
<svg
   viewBox="0 0 448 512"
   version="1.1"
   id="svg4"
   sodipodi:docname="expand-solid.svg"
   inkscape:version="1.2.1 (9c6d41e410, 2022-07-14)"
   xmlns:inkscape="http://www.inkscape.org/namespaces/inkscape"
   xmlns:sodipodi="http://sodipodi.sourceforge.net/DTD/sodipodi-0.dtd"
   xmlns="http://www.w3.org/2000/svg"
   xmlns:svg="http://www.w3.org/2000/svg">
  <defs
     id="defs8" />
  <sodipodi:namedview
     id="namedview6"
     pagecolor="#ffffff"
     bordercolor="#000000"
     borderopacity="0.25"
     inkscape:showpageshadow="2"
     inkscape:pageopacity="0.0"
     inkscape:pagecheckerboard="0"
     inkscape:deskcolor="#d1d1d1"
     showgrid="false"
     inkscape:zoom="1.7128906"
     inkscape:cx="224.18244"
     inkscape:cy="256.2919"
     inkscape:window-width="1920"
     inkscape:window-height="1057"
     inkscape:window-x="-8"
     inkscape:window-y="-8"
     inkscape:window-maximized="1"
     inkscape:current-layer="svg4" />
  <!--! Font Awesome Pro 6.2.0 by @fontawesome - https://fontawesome.com License - https://fontawesome.com/license (Commercial License) Copyright 2022 Fonticons, Inc. -->
  <path
     d="M 32,32 C 14.3,32 0,46.3 0,64 v 96 c 0,17.7 14.3,32 32,32 17.7,0 32,-14.3 32,-32 V 96 h 64 c 17.7,0 32,-14.3 32,-32 0,-17.7 -14.3,-32 -32,-32 z M 64,352 C 64,334.3 49.7,320 32,320 14.3,320 0,334.3 0,352 v 96 c 0,17.7 14.3,32 32,32 h 96 c 17.7,0 32,-14.3 32,-32 0,-17.7 -14.3,-32 -32,-32 H 64 Z M 320,32 c -17.7,0 -32,14.3 -32,32 0,17.7 14.3,32 32,32 h 64 v 64 c 0,17.7 14.3,32 32,32 17.7,0 32,-14.3 32,-32 V 64 C 448,46.3 433.7,32 416,32 Z m 128,320 c 0,-17.7 -14.3,-32 -32,-32 -17.7,0 -32,14.3 -32,32 v 64 h -64 c -17.7,0 -32,14.3 -32,32 0,17.7 14.3,32 32,32 h 96 c 17.7,0 32,-14.3 32,-32 z"
     id="path2"
     style="fill:#FFFFFF" />
</svg>
