<?xml version="1.0" encoding="UTF-8" standalone="no"?>
<svg
   viewBox="0 0 640 512"
   version="1.1"
   id="svg4"
   sodipodi:docname="microphone-slash-solid.svg"
   inkscape:version="1.2.1 (9c6d41e410, 2022-07-14)"
   xmlns:inkscape="http://www.inkscape.org/namespaces/inkscape"
   xmlns:sodipodi="http://sodipodi.sourceforge.net/DTD/sodipodi-0.dtd"
   xmlns="http://www.w3.org/2000/svg"
   xmlns:svg="http://www.w3.org/2000/svg">
  <defs
     id="defs8" />
  <sodipodi:namedview
     id="namedview6"
     pagecolor="#ffffff"
     bordercolor="#000000"
     borderopacity="0.25"
     inkscape:showpageshadow="2"
     inkscape:pageopacity="0.0"
     inkscape:pagecheckerboard="0"
     inkscape:deskcolor="#d1d1d1"
     showgrid="false"
     inkscape:zoom="1.7128906"
     inkscape:cx="319.92702"
     inkscape:cy="256.2919"
     inkscape:window-width="1920"
     inkscape:window-height="1057"
     inkscape:window-x="-8"
     inkscape:window-y="-8"
     inkscape:window-maximized="1"
     inkscape:current-layer="svg4" />
  <!--! Font Awesome Pro 6.2.0 by @fontawesome - https://fontawesome.com License - https://fontawesome.com/license (Commercial License) Copyright 2022 Fonticons, Inc. -->
  <path
     d="M 38.8,5.1 C 28.4,-3.1 13.3,-1.2 5.1,9.2 -3.1,19.6 -1.2,34.7 9.2,42.9 l 592,464 c 10.4,8.2 25.5,6.3 33.7,-4.1 8.2,-10.4 6.3,-25.5 -4.1,-33.7 L 472.1,344.7 C 487.3,318.7 496,288.4 496,256 v -40 c 0,-13.3 -10.7,-24 -24,-24 -13.3,0 -24,10.7 -24,24 v 40 c 0,21.2 -5.1,41.1 -14.2,58.7 L 416,300.8 V 96 C 416,43 373,0 320,0 267,0 224,43 224,96 v 54.3 z M 344,430.4 c 20.4,-2.8 39.7,-9.1 57.3,-18.2 L 358.2,378.3 C 346.1,382 333.3,384 320,384 249.3,384 192,326.7 192,256 v -8.7 L 144.7,210 c -0.5,1.9 -0.7,3.9 -0.7,6 v 40 c 0,89.1 66.2,162.7 152,174.4 V 464 h -48 c -13.3,0 -24,10.7 -24,24 0,13.3 10.7,24 24,24 h 72 72 c 13.3,0 24,-10.7 24,-24 0,-13.3 -10.7,-24 -24,-24 h -48 z"
     id="path2"
     style="fill:#FFFFFF" />
</svg>
