<?xml version="1.0" encoding="UTF-8" standalone="no"?>
<svg
   viewBox="0 0 576 512"
   version="1.1"
   id="svg120"
   sodipodi:docname="share-from-square-solid.svg"
   inkscape:version="1.2.1 (9c6d41e410, 2022-07-14)"
   xmlns:inkscape="http://www.inkscape.org/namespaces/inkscape"
   xmlns:sodipodi="http://sodipodi.sourceforge.net/DTD/sodipodi-0.dtd"
   xmlns="http://www.w3.org/2000/svg"
   xmlns:svg="http://www.w3.org/2000/svg">
  <defs
     id="defs124" />
  <sodipodi:namedview
     id="namedview122"
     pagecolor="#ffffff"
     bordercolor="#000000"
     borderopacity="0.25"
     inkscape:showpageshadow="2"
     inkscape:pageopacity="0.0"
     inkscape:pagecheckerboard="0"
     inkscape:deskcolor="#d1d1d1"
     showgrid="false"
     inkscape:zoom="1.7128906"
     inkscape:cx="287.81756"
     inkscape:cy="256.2919"
     inkscape:window-width="1920"
     inkscape:window-height="1057"
     inkscape:window-x="-8"
     inkscape:window-y="-8"
     inkscape:window-maximized="1"
     inkscape:current-layer="svg120" />
  <!--! Font Awesome Pro 6.2.0 by @fontawesome - https://fontawesome.com License - https://fontawesome.com/license (Commercial License) Copyright 2022 Fonticons, Inc. -->
  <path
     d="m 384,24 c 0,-9.6 5.7,-18.2 14.5,-22 8.8,-3.8 19,-2 26,4.6 l 144,136 c 4.8,4.5 7.5,10.8 7.5,17.4 0,6.6 -2.7,12.9 -7.5,17.4 l -144,136 c -7,6.6 -17.2,8.4 -26,4.6 -8.8,-3.8 -14.5,-12.5 -14.5,-22 v -72 h -32 -14.5 c -45,0 -81.5,36.5 -81.5,81.5 0,22.3 10.3,34.3 19.2,40.5 6.8,4.7 12.8,12 12.8,20.3 0,9.8 -8,17.8 -17.8,17.8 h -2.5 c -2.4,0 -4.8,-0.4 -7.1,-1.4 C 242.8,374.8 160,333.4 160,240 160,160.5 224.5,96 304,96 h 80 z M 0,144 C 0,99.8 35.8,64 80,64 h 16 c 17.7,0 32,14.3 32,32 0,17.7 -14.3,32 -32,32 H 80 c -8.8,0 -16,7.2 -16,16 v 288 c 0,8.8 7.2,16 16,16 h 288 c 8.8,0 16,-7.2 16,-16 v -16 c 0,-17.7 14.3,-32 32,-32 17.7,0 32,14.3 32,32 v 16 c 0,44.2 -35.8,80 -80,80 H 80 C 35.8,512 0,476.2 0,432 Z"
     id="path118"
     style="fill:#FFFFFF" />
</svg>
