<?xml version="1.0" encoding="UTF-8" standalone="no"?>
<svg
   viewBox="0 0 640 512"
   version="1.1"
   id="svg4"
   sodipodi:docname="user-group-solid.svg"
   inkscape:version="1.2.1 (9c6d41e410, 2022-07-14)"
   xmlns:inkscape="http://www.inkscape.org/namespaces/inkscape"
   xmlns:sodipodi="http://sodipodi.sourceforge.net/DTD/sodipodi-0.dtd"
   xmlns="http://www.w3.org/2000/svg"
   xmlns:svg="http://www.w3.org/2000/svg">
  <defs
     id="defs8" />
  <sodipodi:namedview
     id="namedview6"
     pagecolor="#ffffff"
     bordercolor="#000000"
     borderopacity="0.25"
     inkscape:showpageshadow="2"
     inkscape:pageopacity="0.0"
     inkscape:pagecheckerboard="0"
     inkscape:deskcolor="#d1d1d1"
     showgrid="false"
     inkscape:zoom="1.7128906"
     inkscape:cx="319.92702"
     inkscape:cy="256.2919"
     inkscape:window-width="1920"
     inkscape:window-height="1057"
     inkscape:window-x="-8"
     inkscape:window-y="-8"
     inkscape:window-maximized="1"
     inkscape:current-layer="svg4" />
  <!--! Font Awesome Pro 6.2.0 by @fontawesome - https://fontawesome.com License - https://fontawesome.com/license (Commercial License) Copyright 2022 Fonticons, Inc. -->
  <path
     d="M 352,128 C 352,198.7 294.7,256 224,256 153.3,256 96,198.7 96,128 96,57.3 153.3,0 224,0 294.7,0 352,57.3 352,128 Z M 0,482.3 C 0,383.8 79.8,304 178.3,304 h 91.4 c 98.5,0 178.3,79.8 178.3,178.3 0,16.4 -13.3,29.7 -29.7,29.7 H 29.7 C 13.3,512 0,498.7 0,482.3 Z M 609.3,512 H 471.4 c 5.4,-9.4 8.6,-20.3 8.6,-32 v -8 c 0,-60.7 -27.1,-115.2 -69.8,-151.8 2.4,-0.1 4.7,-0.2 7.1,-0.2 h 61.4 c 89.1,0 161.3,72.2 161.3,161.3 0,17 -13.8,30.7 -30.7,30.7 z M 432,256 C 401,256 373,243.4 352.7,223.1 372.4,196.5 384,163.6 384,128 384,101.2 377.4,75.9 365.7,53.7 384.3,40.1 407.2,32 432,32 c 61.9,0 112,50.1 112,112 0,61.9 -50.1,112 -112,112 z"
     id="path2"
     style="fill:#FFFFFF" />
</svg>
