<?xml version="1.0" encoding="UTF-8" standalone="no"?>
<svg
   viewBox="0 0 640 512"
   version="1.1"
   id="svg4"
   sodipodi:docname="video-slash-solid.svg"
   inkscape:version="1.2.1 (9c6d41e410, 2022-07-14)"
   xmlns:inkscape="http://www.inkscape.org/namespaces/inkscape"
   xmlns:sodipodi="http://sodipodi.sourceforge.net/DTD/sodipodi-0.dtd"
   xmlns="http://www.w3.org/2000/svg"
   xmlns:svg="http://www.w3.org/2000/svg">
  <defs
     id="defs8" />
  <sodipodi:namedview
     id="namedview6"
     pagecolor="#ffffff"
     bordercolor="#000000"
     borderopacity="0.25"
     inkscape:showpageshadow="2"
     inkscape:pageopacity="0.0"
     inkscape:pagecheckerboard="0"
     inkscape:deskcolor="#d1d1d1"
     showgrid="false"
     inkscape:zoom="1.7128906"
     inkscape:cx="319.92702"
     inkscape:cy="256.2919"
     inkscape:window-width="1920"
     inkscape:window-height="1057"
     inkscape:window-x="-8"
     inkscape:window-y="-8"
     inkscape:window-maximized="1"
     inkscape:current-layer="svg4" />
  <!--! Font Awesome Pro 6.2.0 by @fontawesome - https://fontawesome.com License - https://fontawesome.com/license (Commercial License) Copyright 2022 Fonticons, Inc. -->
  <path
     d="M 38.8,5.1 C 28.4,-3.1 13.3,-1.2 5.1,9.2 -3.1,19.6 -1.2,34.7 9.2,42.9 l 592,464 c 10.4,8.2 25.5,6.3 33.7,-4.1 8.2,-10.4 6.3,-25.5 -4.1,-33.7 l -86.4,-67.7 13.8,9.2 c 9.8,6.5 22.4,7.2 32.9,1.6 C 601.6,406.6 608,395.8 608,384 V 128 c 0,-11.8 -6.5,-22.6 -16.9,-28.2 -10.4,-5.6 -23,-5 -32.9,1.6 l -96,64 -14.2,9.5 v 17.1 128 5.8 L 416,300.7 V 128 C 416,92.7 387.3,64 352,64 H 113.9 Z M 32,128 v 256 c 0,35.3 28.7,64 64,64 h 256 c 23.4,0 43.9,-12.6 55,-31.3 L 32.3,121.5 c -0.2,2.1 -0.3,4.3 -0.3,6.5 z"
     id="path2"
     style="fill:#000000" />
</svg>
